<svg width="34" height="34" viewBox="0 0 34 34" fill="none" xmlns="http://www.w3.org/2000/svg">
<path d="M14.6666 24.6666L26.4166 12.9166L24.0833 10.5833L14.6666 19.9999L9.91659 15.2499L7.58325 17.5833L14.6666 24.6666ZM16.9999 33.6666C14.6944 33.6666 12.5277 33.2288 10.4999 32.3533C8.47214 31.4777 6.70825 30.2905 5.20825 28.7916C3.70825 27.2927 2.52103 25.5288 1.64659 23.4999C0.772143 21.471 0.334365 19.3044 0.333254 16.9999C0.332143 14.6955 0.769921 12.5288 1.64659 10.4999C2.52325 8.47103 3.71048 6.70714 5.20825 5.20825C6.70603 3.70936 8.46992 2.52214 10.4999 1.64659C12.5299 0.77103 14.6966 0.333252 16.9999 0.333252C19.3033 0.333252 21.4699 0.77103 23.4999 1.64659C25.5299 2.52214 27.2938 3.70936 28.7916 5.20825C30.2894 6.70714 31.4771 8.47103 32.3549 10.4999C33.2327 12.5288 33.6699 14.6955 33.6666 16.9999C33.6633 19.3044 33.2255 21.471 32.3533 23.4999C31.481 25.5288 30.2938 27.2927 28.7916 28.7916C27.2894 30.2905 25.5255 31.4783 23.4999 32.3549C21.4744 33.2316 19.3077 33.6688 16.9999 33.6666ZM16.9999 30.3333C20.7221 30.3333 23.8749 29.0416 26.4583 26.4583C29.0416 23.8749 30.3333 20.7221 30.3333 16.9999C30.3333 13.2777 29.0416 10.1249 26.4583 7.54159C23.8749 4.95825 20.7221 3.66659 16.9999 3.66659C13.2777 3.66659 10.1249 4.95825 7.54159 7.54159C4.95825 10.1249 3.66659 13.2777 3.66659 16.9999C3.66659 20.7221 4.95825 23.8749 7.54159 26.4583C10.1249 29.0416 13.2777 30.3333 16.9999 30.3333Z" fill="#14AE5C"/>
</svg>
