<svg width="24" height="24" viewBox="0 0 24 24" fill="none" xmlns="http://www.w3.org/2000/svg">
<path d="M21 12C21 10.1195 20.411 8.28619 19.3157 6.7576C18.2203 5.22901 16.6736 4.08193 14.8929 3.47746C13.1122 2.873 11.1868 2.84151 9.3873 3.38743C7.58776 3.93334 6.00442 5.02924 4.85967 6.52119C3.71492 8.01314 3.06627 9.8262 3.00481 11.7057C2.94335 13.5852 3.47218 15.4368 4.51702 17.0004C5.56187 18.5639 7.07023 19.7609 8.83027 20.4232C10.5903 21.0855 12.5136 21.1799 14.33 20.693" stroke="white" stroke-width="2" stroke-linecap="round"/>
<path d="M12 16C14.2091 16 16 14.2091 16 12C16 9.79086 14.2091 8 12 8C9.79086 8 8 9.79086 8 12C8 14.2091 9.79086 16 12 16Z" stroke="white" stroke-width="2"/>
<path d="M16 9V13.5C16 14.163 16.2634 14.7989 16.7322 15.2678C17.2011 15.7366 17.837 16 18.5 16C19.163 16 19.7989 15.7366 20.2678 15.2678C20.7366 14.7989 21 14.163 21 13.5V12" stroke="white" stroke-width="2" stroke-linecap="round"/>
</svg>
