<svg width="45" height="30" viewBox="0 0 45 30" fill="none" xmlns="http://www.w3.org/2000/svg">
<path opacity="0.5" d="M22.4999 9.24396C20.9418 9.24396 19.4474 9.86293 18.3457 10.9647C17.2439 12.0665 16.6249 13.5608 16.6249 15.119C16.6249 16.6771 17.2439 18.1714 18.3457 19.2732C19.4474 20.375 20.9418 20.994 22.4999 20.994C24.0581 20.994 25.5524 20.375 26.6542 19.2732C27.7559 18.1714 28.3749 16.6771 28.3749 15.119C28.3749 13.5608 27.7559 12.0665 26.6542 10.9647C25.5524 9.86293 24.0581 9.24396 22.4999 9.24396ZM22.4999 24.9106C19.903 24.9106 17.4125 23.879 15.5762 22.0427C13.7399 20.2064 12.7083 17.7159 12.7083 15.119C12.7083 12.522 13.7399 10.0315 15.5762 8.1952C17.4125 6.35891 19.903 5.32729 22.4999 5.32729C25.0968 5.32729 27.5874 6.35891 29.4237 8.1952C31.26 10.0315 32.2916 12.522 32.2916 15.119C32.2916 17.7159 31.26 20.2064 29.4237 22.0427C27.5874 23.879 25.0968 24.9106 22.4999 24.9106ZM22.4999 0.431458C12.7083 0.431458 4.34617 6.52187 0.958252 15.119C4.34617 23.716 12.7083 29.8065 22.4999 29.8065C32.2916 29.8065 40.6537 23.716 44.0416 15.119C40.6537 6.52187 32.2916 0.431458 22.4999 0.431458Z" fill="#E6E6E6"/>
</svg>
