<svg width="27" height="35" viewBox="0 0 27 35" fill="none" xmlns="http://www.w3.org/2000/svg">
<path d="M5.64 32.5H21.36V26.875C21.36 24.6675 20.6019 22.7819 19.0856 21.2181C17.5694 19.6519 15.7075 18.8687 13.5 18.8687C11.2925 18.8687 9.43062 19.6513 7.91437 21.2163C6.39812 22.7812 5.64 24.6675 5.64 26.875V32.5ZM13.5 16.1313C15.7075 16.1313 17.5694 15.3481 19.0856 13.7819C20.6019 12.2156 21.36 10.33 21.36 8.125V2.5H5.64V8.125C5.64 10.3325 6.39812 12.2181 7.91437 13.7819C9.43062 15.3481 11.2925 16.1313 13.5 16.1313ZM0.375 34.375V32.5H3.765V26.875C3.765 24.56 4.47437 22.5069 5.89312 20.7156C7.31187 18.9244 9.13062 17.8525 11.3494 17.5C9.13187 17.125 7.31312 16.0475 5.89312 14.2675C4.47312 12.4875 3.76375 10.44 3.765 8.125V2.5H0.375V0.625H26.625V2.5H23.235V8.125C23.235 10.44 22.5256 12.4875 21.1069 14.2675C19.6881 16.0475 17.8694 17.125 15.6506 17.5C17.8681 17.85 19.6869 18.9219 21.1069 20.7156C22.5256 22.5069 23.235 24.56 23.235 26.875V32.5H26.625V34.375H0.375Z" fill="#FFCD29"/>
</svg>
