<svg width="50" height="51" viewBox="0 0 50 51" fill="none" xmlns="http://www.w3.org/2000/svg">
<path d="M24.9999 27.7023C24.3656 27.6949 23.7443 27.882 23.2196 28.2384C22.6949 28.5947 22.2919 29.1033 22.0649 29.6957C21.838 30.288 21.798 30.9356 21.9502 31.5514C22.1025 32.1672 22.4397 32.7215 22.9166 33.1398V36.0356C22.9166 36.5882 23.1361 37.1181 23.5268 37.5088C23.9175 37.8995 24.4474 38.119 24.9999 38.119C25.5525 38.119 26.0824 37.8995 26.4731 37.5088C26.8638 37.1181 27.0833 36.5882 27.0833 36.0356V33.1398C27.5601 32.7215 27.8973 32.1672 28.0496 31.5514C28.2019 30.9356 28.1618 30.288 27.9349 29.6957C27.7079 29.1033 27.305 28.5947 26.7802 28.2384C26.2555 27.882 25.6342 27.6949 24.9999 27.7023ZM35.4166 19.369V15.2023C35.4166 12.4396 34.3191 9.79012 32.3656 7.83662C30.4121 5.88311 27.7626 4.78564 24.9999 4.78564C22.2372 4.78564 19.5877 5.88311 17.6342 7.83662C15.6807 9.79012 14.5833 12.4396 14.5833 15.2023V19.369C12.9256 19.369 11.3359 20.0275 10.1638 21.1996C8.99173 22.3717 8.33325 23.9614 8.33325 25.619V40.2023C8.33325 41.8599 8.99173 43.4496 10.1638 44.6217C11.3359 45.7938 12.9256 46.4523 14.5833 46.4523H35.4166C37.0742 46.4523 38.6639 45.7938 39.836 44.6217C41.0081 43.4496 41.6666 41.8599 41.6666 40.2023V25.619C41.6666 23.9614 41.0081 22.3717 39.836 21.1996C38.6639 20.0275 37.0742 19.369 35.4166 19.369ZM18.7499 15.2023C18.7499 13.5447 19.4084 11.955 20.5805 10.7829C21.7526 9.61079 23.3423 8.95231 24.9999 8.95231C26.6575 8.95231 28.2472 9.61079 29.4193 10.7829C30.5914 11.955 31.2499 13.5447 31.2499 15.2023V19.369H18.7499V15.2023ZM37.4999 40.2023C37.4999 40.7548 37.2804 41.2847 36.8897 41.6754C36.499 42.0662 35.9691 42.2856 35.4166 42.2856H14.5833C14.0307 42.2856 13.5008 42.0662 13.1101 41.6754C12.7194 41.2847 12.4999 40.7548 12.4999 40.2023V25.619C12.4999 25.0664 12.7194 24.5365 13.1101 24.1458C13.5008 23.7551 14.0307 23.5356 14.5833 23.5356H35.4166C35.9691 23.5356 36.499 23.7551 36.8897 24.1458C37.2804 24.5365 37.4999 25.0664 37.4999 25.619V40.2023Z" fill="#E6E6E6"/>
</svg>
