<svg width="15" height="15" viewBox="0 0 15 15" fill="none" xmlns="http://www.w3.org/2000/svg">
<path fill-rule="evenodd" clip-rule="evenodd" d="M0 3.5C0 3.10218 0.158035 2.72064 0.43934 2.43934C0.720644 2.15804 1.10218 2 1.5 2H13.5C13.8978 2 14.2794 2.15804 14.5607 2.43934C14.842 2.72064 15 3.10218 15 3.5V11.5C15 11.8978 14.842 12.2794 14.5607 12.5607C14.2794 12.842 13.8978 13 13.5 13H1.5C1.10218 13 0.720644 12.842 0.43934 12.5607C0.158035 12.2794 0 11.8978 0 11.5L0 3.5ZM3 6C3 5.46957 3.21071 4.96086 3.58579 4.58579C3.96086 4.21071 4.46957 4 5 4C5.53043 4 6.03914 4.21071 6.41421 4.58579C6.78929 4.96086 7 5.46957 7 6C7 6.53043 6.78929 7.03914 6.41421 7.41421C6.03914 7.78929 5.53043 8 5 8C4.46957 8 3.96086 7.78929 3.58579 7.41421C3.21071 7.03914 3 6.53043 3 6ZM12 6H9V5H12V6ZM12 9H9V8H12V9ZM5 9C4.45649 9.00034 3.92379 9.15185 3.46146 9.43759C2.99912 9.72332 2.62537 10.132 2.382 10.618L2.052 11.276C2.01376 11.3523 1.9957 11.4371 1.99952 11.5224C2.00334 11.6077 2.02892 11.6905 2.07383 11.7631C2.11874 11.8357 2.18148 11.8955 2.25608 11.937C2.33068 11.9785 2.41465 12.0002 2.5 12H7.5C7.58526 12 7.66911 11.9782 7.74357 11.9367C7.81803 11.8951 7.88064 11.8352 7.92543 11.7627C7.97022 11.6901 7.99572 11.6073 7.99949 11.5221C8.00327 11.437 7.9852 11.3522 7.947 11.276L7.618 10.618C7.37463 10.132 7.00088 9.72332 6.53854 9.43759C6.07621 9.15185 5.54351 9.00034 5 9Z" fill="white"/>
</svg>
