<svg width="47" height="46" viewBox="0 0 47 46" fill="none" xmlns="http://www.w3.org/2000/svg">
<g filter="url(#filter0_d_3_653)">
<path d="M23.25 0C12.762 0 4.25 8.512 4.25 19C4.25 29.488 12.762 38 23.25 38C33.738 38 42.25 29.488 42.25 19C42.25 8.512 33.738 0 23.25 0ZM13.883 30.932C14.7 29.222 19.678 27.55 23.25 27.55C26.822 27.55 31.819 29.222 32.617 30.932C30.033 32.984 26.784 34.2 23.25 34.2C19.716 34.2 16.467 32.984 13.883 30.932ZM35.334 28.177C32.617 24.871 26.024 23.75 23.25 23.75C20.476 23.75 13.883 24.871 11.166 28.177C9.228 25.631 8.05 22.458 8.05 19C8.05 10.621 14.871 3.8 23.25 3.8C31.629 3.8 38.45 10.621 38.45 19C38.45 22.458 37.272 25.631 35.334 28.177ZM23.25 7.6C19.564 7.6 16.6 10.564 16.6 14.25C16.6 17.936 19.564 20.9 23.25 20.9C26.936 20.9 29.9 17.936 29.9 14.25C29.9 10.564 26.936 7.6 23.25 7.6ZM23.25 17.1C21.673 17.1 20.4 15.827 20.4 14.25C20.4 12.673 21.673 11.4 23.25 11.4C24.827 11.4 26.1 12.673 26.1 14.25C26.1 15.827 24.827 17.1 23.25 17.1Z" fill="#002F52"/>
</g>
<defs>
<filter id="filter0_d_3_653" x="0.25" y="0" width="46" height="46" filterUnits="userSpaceOnUse" color-interpolation-filters="sRGB">
<feFlood flood-opacity="0" result="BackgroundImageFix"/>
<feColorMatrix in="SourceAlpha" type="matrix" values="0 0 0 0 0 0 0 0 0 0 0 0 0 0 0 0 0 0 127 0" result="hardAlpha"/>
<feOffset dy="4"/>
<feGaussianBlur stdDeviation="2"/>
<feComposite in2="hardAlpha" operator="out"/>
<feColorMatrix type="matrix" values="0 0 0 0 0 0 0 0 0 0 0 0 0 0 0 0 0 0 0.25 0"/>
<feBlend mode="normal" in2="BackgroundImageFix" result="effect1_dropShadow_3_653"/>
<feBlend mode="normal" in="SourceGraphic" in2="effect1_dropShadow_3_653" result="shape"/>
</filter>
</defs>
</svg>
