<svg width="43" height="43" viewBox="0 0 43 43" fill="none" xmlns="http://www.w3.org/2000/svg">
<path d="M21.7161 17.731C22.5256 17.731 23.3271 17.5716 24.075 17.2618C24.8229 16.952 25.5024 16.498 26.0748 15.9256C26.6472 15.3532 27.1013 14.6736 27.4111 13.9258C27.7209 13.1779 27.8803 12.3763 27.8803 11.5668C27.8803 10.7573 27.7209 9.95574 27.4111 9.20786C27.1013 8.45998 26.6472 7.78045 26.0748 7.20805C25.5024 6.63565 24.8229 6.18159 24.075 5.87181C23.3271 5.56203 22.5256 5.40259 21.7161 5.40259C20.0812 5.40259 18.5133 6.05203 17.3573 7.20805C16.2013 8.36406 15.5519 9.93195 15.5519 11.5668C15.5519 13.2017 16.2013 14.7696 17.3573 15.9256C18.5133 17.0816 20.0812 17.731 21.7161 17.731ZM5.86523 36.0476V37.1043H37.5669V36.0476C37.5669 32.1025 37.5669 30.1299 36.799 28.6223C36.1236 27.2968 35.046 26.2191 33.7205 25.5437C32.2129 24.7758 30.2403 24.7758 26.2952 24.7758H17.1369C13.1918 24.7758 11.2193 24.7758 9.71171 25.5437C8.3862 26.2191 7.30852 27.2968 6.63312 28.6223C5.86523 30.1299 5.86523 32.1025 5.86523 36.0476Z" fill="#E6E6E6" stroke="#E6E6E6" stroke-width="2" stroke-linecap="round" stroke-linejoin="round"/>
</svg>
